<svg id="Layer_1" data-name="Layer 1" xmlns="http://www.w3.org/2000/svg" viewBox="0 0 43.46 29.57"><defs><style>.cls-1{fill-rule:evenodd;}</style></defs><title>freecodecamplogo</title><path id="path29" class="cls-1" d="M0,17.73A17.94,17.94,0,0,1,4.72,5.49c1.14-1.33,2.06-2,2.69-2a.86.86,0,0,1,.64.23.8.8,0,0,1,.29.59c0,.34-.42.86-1.22,1.67A15.84,15.84,0,0,0,2.19,17.85a16.82,16.82,0,0,0,5.1,12.71c.68.64,1,1.16,1,1.57a1,1,0,0,1-.29.64.94.94,0,0,1-.64.3c-.8,0-1.89-.94-3.33-2.78A19.33,19.33,0,0,1,0,17.73Z" transform="translate(0 -3.52)"/><path id="path31" class="cls-1" d="M43.46,18.89a18,18,0,0,1-4.71,12.24c-1.15,1.32-2.07,2-2.7,2a.87.87,0,0,1-.63-.22.94.94,0,0,1-.3-.64c0-.34.42-.86,1.22-1.62a15.88,15.88,0,0,0,4.93-11.85,16.81,16.81,0,0,0-5.1-12.7c-.68-.64-1.05-1.16-1.05-1.58a1,1,0,0,1,.3-.64,1,1,0,0,1,.63-.29c.75,0,1.89.93,3.33,2.78a20,20,0,0,1,4.08,12.56Z" transform="translate(0 -3.52)"/><path id="path37" class="cls-1" d="M31.63,32.1H11.74a1.23,1.23,0,0,1-1.22-1.23,1.19,1.19,0,0,1,1.22-1.23H31.63a1.22,1.22,0,0,1,1.21,1.23,1.15,1.15,0,0,1-1.21,1.23Z" transform="translate(0 -3.52)"/><path id="Shape" class="cls-1" d="M17.53,6a4.2,4.2,0,0,1,1.65,3.24c0,3.61-4.86,7.65-4.86,11.38a7.88,7.88,0,0,0,6,7.5c.42.1.61-.4.08-.52-1.19-.29-2.55-1.89-2.55-4.4,0-2.31,2.18-3.17,3.08-4.3a2.42,2.42,0,0,0,.17-3c-.53-.42-.17-1,.78-.32a3.18,3.18,0,0,1,1.46,3.12c-.37,1.52.12,2.41.9,2.51s1.65-.3,1.58-1-.54-1.52-.27-1.52c.56,0,1.75,1.4,1.75,3.61S25.5,26,25,26.6c-.34.35.1.81.56.59a7.15,7.15,0,0,0,1-.61,8.29,8.29,0,0,0,3.67-7,9.11,9.11,0,0,0-3.06-7.37c-1.53-1.52-1.92-1.13-1.48-.39,1.31,2.26.51,3-.44,3-1.12,0-1.19-2.56-1.63-4.52A6.47,6.47,0,0,0,18,5.17c-.7,0-1.36.47-.48.84Z" transform="translate(0 -3.52)"/></svg>